<?xml version="1.0" encoding="UTF-8"?>
<svg xmlns="http://www.w3.org/2000/svg" xmlns:xlink="http://www.w3.org/1999/xlink" width="375pt" height="374.999991pt" viewBox="0 0 375 374.999991" version="1.2">
<g id="surface1">
<path style=" stroke:none;fill-rule:nonzero;fill:rgb(0%,29.019165%,67.83905%);fill-opacity:1;" d="M 7.902344 374.640625 C 6.0625 374.640625 4.226562 373.9375 2.824219 372.535156 C 0.015625 369.730469 0.015625 365.183594 2.824219 362.378906 L 362.019531 3.183594 C 364.824219 0.375 369.371094 0.375 372.175781 3.183594 C 374.984375 5.988281 374.984375 10.535156 372.175781 13.339844 L 12.980469 372.535156 C 11.578125 373.9375 9.738281 374.640625 7.902344 374.640625 "/>
<path style=" stroke:none;fill-rule:nonzero;fill:rgb(0%,29.019165%,67.83905%);fill-opacity:1;" d="M 367.097656 374.640625 C 365.261719 374.640625 363.421875 373.9375 362.019531 372.535156 L 2.824219 13.339844 C 0.015625 10.535156 0.015625 5.988281 2.824219 3.183594 C 5.628906 0.375 10.175781 0.375 12.980469 3.183594 L 372.175781 362.378906 C 374.984375 365.183594 374.984375 369.730469 372.175781 372.535156 C 370.773438 373.9375 368.933594 374.640625 367.097656 374.640625 "/>
</g>
</svg>
